<?xml version="1.0" encoding="UTF-8"?>
<svg xmlns="http://www.w3.org/2000/svg" width="40px" height="40px" viewBox="0 0 40 40" version="1.1">
    <g id="surface1">
        <path style=" stroke:none;fill-rule:evenodd;fill:rgb(100%,0%,46.666667%);fill-opacity:1;"
              d="M 40 20 C 40 31.046875 31.046875 40 20 40 C 8.953125 40 0 31.046875 0 20 C 0 8.953125 8.953125 0 20 0 C 31.046875 0 40 8.953125 40 20 Z M 40 20 "/>
        <path style="fill-rule:evenodd;fill:rgb(100%,0%,46.666667%);fill-opacity:1;stroke-width:1;stroke-linecap:butt;stroke-linejoin:miter;stroke:rgb(59.215686%,59.215686%,59.215686%);stroke-opacity:1;stroke-miterlimit:4;"
              d="M 0.507812 0.507812 L 399.492188 0.507812 L 399.492188 399.492188 L 0.507812 399.492188 Z M 0.507812 0.507812 "
              transform="matrix(0.1,0,0,0.1,0,0)"/>
        <path style=" stroke:none;fill-rule:evenodd;fill:rgb(100%,100%,100%);fill-opacity:1;"
              d="M 20.035156 4.699219 C 11.199219 4.699219 4 11.828125 4 20.523438 L 4 20.59375 L 6.707031 22.160156 L 6.78125 22.160156 C 8.488281 21.019531 10.558594 20.59375 12.625 20.949219 C 14.050781 21.234375 15.402344 21.875 16.472656 22.875 L 16.972656 23.300781 L 17.257812 22.730469 C 17.542969 22.160156 17.828125 21.664062 18.113281 21.164062 C 18.253906 20.949219 18.394531 20.808594 18.539062 20.59375 L 18.824219 20.238281 L 18.46875 19.953125 C 16.972656 18.738281 15.1875 17.886719 13.265625 17.527344 C 11.410156 17.171875 9.558594 17.242188 7.847656 17.8125 C 9.132812 12.183594 14.121094 8.191406 20.035156 8.191406 C 23.386719 8.191406 26.519531 9.476562 28.875 11.828125 C 30.582031 13.464844 31.722656 15.53125 32.222656 17.8125 C 31.152344 17.457031 30.011719 17.316406 28.875 17.316406 L 28.660156 17.316406 C 28.230469 17.316406 27.804688 17.386719 27.304688 17.386719 L 27.234375 17.386719 C 27.089844 17.386719 26.878906 17.457031 26.734375 17.457031 C 26.449219 17.527344 26.234375 17.527344 25.949219 17.601562 L 25.738281 17.671875 C 25.523438 17.742188 25.308594 17.8125 25.097656 17.886719 L 25.023438 17.886719 C 24.527344 18.027344 24.097656 18.242188 23.597656 18.453125 C 23.386719 18.527344 23.171875 18.667969 22.957031 18.8125 L 22.886719 18.8125 C 21.816406 19.453125 20.820312 20.238281 20.035156 21.234375 L 19.964844 21.378906 C 19.75 21.664062 19.609375 21.875 19.464844 22.019531 C 19.324219 22.160156 19.25 22.375 19.109375 22.589844 L 19.039062 22.730469 C 18.894531 22.945312 18.824219 23.160156 18.753906 23.300781 L 18.753906 23.371094 C 18.539062 23.800781 18.324219 24.300781 18.183594 24.796875 L 18.183594 24.871094 C 17.828125 26.007812 17.613281 27.222656 17.613281 28.503906 L 17.613281 28.648438 C 17.613281 28.789062 17.613281 29.003906 17.613281 29.144531 C 17.613281 29.214844 17.613281 29.289062 17.613281 29.359375 C 17.613281 29.429688 17.613281 29.574219 17.613281 29.644531 L 17.613281 29.859375 C 17.613281 30 17.683594 30.214844 17.683594 30.355469 C 18.039062 32.066406 18.824219 33.707031 20.035156 35.203125 L 20.105469 35.273438 L 20.179688 35.203125 C 20.675781 34.632812 21.816406 32.851562 21.960938 31.78125 C 21.390625 30.714844 21.105469 29.5 21.105469 28.363281 C 21.105469 24.371094 24.242188 21.019531 28.304688 20.808594 L 28.589844 20.808594 C 30.226562 20.734375 31.867188 21.234375 33.21875 22.160156 L 33.292969 22.160156 L 36 20.59375 L 36 20.523438 C 36 16.316406 34.359375 12.324219 31.296875 9.332031 C 28.304688 6.339844 24.3125 4.699219 20.035156 4.699219 "/>
    </g>
</svg>
