<?xml version="1.0" encoding="UTF-8"?>
<svg xmlns="http://www.w3.org/2000/svg" width="40px" height="40px" viewBox="0 0 40 40" version="1.1">
<g id="surface1">
<path style=" stroke:none;fill-rule:nonzero;fill:rgb(90.196079%,86.274511%,82.352942%);fill-opacity:1;" d="M 30.042969 19.816406 C 31.378906 20.3125 37.246094 22.246094 37.246094 27.769531 C 37.246094 33.28125 32.484375 35.140625 28.964844 33.964844 C 24.828125 32.585938 20 22.246094 20 22.246094 L 20 18.792969 Z M 30.042969 19.816406 "/>
<path style=" stroke:none;fill-rule:nonzero;fill:rgb(100%,78.431374%,39.215687%);fill-opacity:1;" d="M 27.796875 33.367188 C 23.964844 30.753906 20 22.246094 20 22.246094 L 20 20.070312 L 20.867188 20.183594 C 20.867188 20.183594 30.113281 20.226562 31.265625 29.035156 C 31.675781 32.144531 30.058594 33.238281 27.796875 33.367188 Z M 27.796875 33.367188 "/>
<path style=" stroke:none;fill-rule:nonzero;fill:rgb(56.078434%,40.000001%,30.19608%);fill-opacity:1;" d="M 34.488281 28.167969 C 32.5 27.230469 31.390625 25.824219 30.3125 24.445312 C 28.507812 22.128906 26.632812 19.730469 20.867188 20.183594 L 20.113281 21.960938 C 23.976562 25.851562 30.796875 27.402344 31.078125 27.457031 C 31.09375 27.457031 31.09375 27.457031 31.09375 27.457031 C 31.859375 28.210938 32.796875 28.890625 33.992188 29.445312 C 34.246094 29.078125 34.402344 28.636719 34.488281 28.167969 Z M 29.433594 25.554688 C 27.34375 24.886719 24.035156 23.59375 21.675781 21.519531 C 26.136719 21.363281 27.585938 23.195312 29.234375 25.296875 C 29.289062 25.382812 29.359375 25.46875 29.433594 25.554688 Z M 29.433594 25.554688 "/>
<path style=" stroke:none;fill-rule:nonzero;fill:rgb(41.176471%,31.37255%,27.450982%);fill-opacity:1;" d="M 31.71875 30.527344 C 34.828125 30.652344 34.972656 26.960938 34.160156 24.859375 C 33.578125 23.324219 33.765625 22.570312 34.332031 22.058594 C 35.894531 23.296875 37.246094 25.113281 37.246094 27.769531 C 37.246094 33.28125 32.484375 35.140625 28.964844 33.964844 C 28.28125 33.734375 27.570312 33.253906 26.859375 32.628906 C 26.804688 31.179688 28.238281 30.371094 31.71875 30.527344 Z M 31.71875 30.527344 "/>
<path style=" stroke:none;fill-rule:nonzero;fill:rgb(41.176471%,31.37255%,27.450982%);fill-opacity:1;" d="M 20.070312 19.871094 C 20.371094 19.289062 27.273438 5.695312 36.546875 5.695312 C 38.210938 5.695312 40 6.804688 40 8.453125 C 40 9.816406 38.863281 20.140625 34.601562 20.851562 C 34.160156 20.921875 33.722656 20.964844 33.253906 20.964844 C 31.777344 20.964844 30.113281 20.652344 28.507812 20.355469 C 25.597656 19.816406 22.570312 19.261719 21.179688 20.667969 C 20.9375 20.910156 20.554688 20.9375 20.285156 20.738281 C 20.015625 20.539062 19.914062 20.171875 20.070312 19.871094 Z M 20.070312 19.871094 "/>
<path style=" stroke:none;fill-rule:nonzero;fill:rgb(90.196079%,86.274511%,82.352942%);fill-opacity:1;" d="M 22.074219 19.316406 C 24.359375 15.355469 29.929688 7.074219 36.503906 7.074219 C 37.597656 7.074219 38.621094 7.785156 38.621094 8.535156 C 38.621094 11.191406 37.03125 19.84375 34.289062 20.3125 C 32.714844 20.597656 30.609375 20.183594 28.566406 19.785156 C 26.277344 19.347656 23.949219 18.90625 22.074219 19.316406 Z M 22.074219 19.316406 "/>
<path style=" stroke:none;fill-rule:nonzero;fill:rgb(56.078434%,40.000001%,30.19608%);fill-opacity:1;" d="M 28.777344 12.058594 C 28.152344 11.933594 27.429688 12.203125 26.621094 12.871094 C 27.285156 12.101562 27.996094 11.347656 28.765625 10.667969 C 28.863281 10.683594 28.949219 10.683594 29.046875 10.695312 C 29.277344 10.753906 29.488281 10.824219 29.6875 10.910156 C 33.351562 8.621094 36.734375 7.996094 38.308594 7.828125 C 38.496094 8.039062 38.621094 8.296875 38.621094 8.535156 C 38.621094 8.734375 38.609375 8.949219 38.59375 9.191406 C 37.316406 9.316406 34.246094 9.816406 30.878906 11.804688 C 31.390625 12.371094 31.648438 12.941406 31.660156 13.011719 C 34.703125 12.257812 37.058594 12.386719 38.140625 12.515625 C 38.054688 12.953125 37.953125 13.410156 37.839844 13.878906 C 36.433594 13.734375 32.769531 13.652344 28.394531 15.609375 C 32.328125 15.683594 35.878906 16.40625 37.03125 16.660156 C 36.859375 17.117188 36.675781 17.558594 36.492188 17.953125 C 34.859375 17.613281 30.113281 16.71875 25.667969 17.058594 C 24.703125 17.671875 23.722656 18.378906 22.742188 19.203125 C 22.515625 19.234375 22.285156 19.261719 22.074219 19.316406 C 22.5 18.578125 23.027344 17.699219 23.664062 16.746094 C 26.007812 15.070312 28.28125 14.019531 30.3125 13.378906 C 30.128906 13.027344 29.601562 12.214844 28.777344 12.058594 Z M 28.777344 12.058594 "/>
<path style=" stroke:none;fill-rule:nonzero;fill:rgb(100%,43.137255%,23.529412%);fill-opacity:1;" d="M 30.042969 33.378906 C 30.398438 33.039062 30.253906 32.328125 29.746094 31.816406 C 29.21875 31.308594 28.523438 31.164062 28.183594 31.503906 C 27.828125 31.859375 27.96875 32.558594 28.480469 33.082031 C 28.992188 33.59375 29.703125 33.734375 30.042969 33.378906 Z M 30.042969 33.378906 "/>
<path style=" stroke:none;fill-rule:nonzero;fill:rgb(100%,43.137255%,23.529412%);fill-opacity:1;" d="M 35.097656 32.144531 C 35.398438 31.847656 35.285156 31.25 34.84375 30.808594 C 34.402344 30.371094 33.808594 30.253906 33.507812 30.554688 C 33.210938 30.851562 33.324219 31.449219 33.765625 31.890625 C 34.203125 32.328125 34.800781 32.441406 35.097656 32.144531 Z M 35.097656 32.144531 "/>
<path style=" stroke:none;fill-rule:nonzero;fill:rgb(100%,43.137255%,23.529412%);fill-opacity:1;" d="M 36.207031 30.398438 C 36.464844 30.140625 36.363281 29.601562 35.964844 29.21875 C 35.582031 28.820312 35.058594 28.722656 34.785156 28.992188 C 34.515625 29.246094 34.628906 29.773438 35.015625 30.171875 C 35.410156 30.554688 35.9375 30.667969 36.207031 30.398438 Z M 36.207031 30.398438 "/>
<path style=" stroke:none;fill-rule:nonzero;fill:rgb(100%,43.137255%,23.529412%);fill-opacity:1;" d="M 36.503906 28.339844 C 36.746094 28.097656 36.648438 27.628906 36.308594 27.273438 C 35.953125 26.917969 35.484375 26.832031 35.242188 27.074219 C 35 27.300781 35.097656 27.785156 35.441406 28.125 C 35.796875 28.480469 36.277344 28.578125 36.503906 28.339844 Z M 36.503906 28.339844 "/>
<path style=" stroke:none;fill-rule:nonzero;fill:rgb(100%,43.137255%,23.529412%);fill-opacity:1;" d="M 36.265625 26.308594 C 36.476562 26.09375 36.390625 25.652344 36.066406 25.328125 C 35.738281 25 35.296875 24.914062 35.085938 25.128906 C 34.871094 25.355469 34.957031 25.796875 35.285156 26.121094 C 35.597656 26.433594 36.035156 26.519531 36.265625 26.308594 Z M 36.265625 26.308594 "/>
<path style=" stroke:none;fill-rule:nonzero;fill:rgb(100%,43.137255%,23.529412%);fill-opacity:1;" d="M 35.382812 24.375 C 35.554688 24.191406 35.484375 23.835938 35.226562 23.578125 C 34.957031 23.324219 34.617188 23.253906 34.433594 23.421875 C 34.261719 23.609375 34.332031 23.949219 34.589844 24.21875 C 34.84375 24.472656 35.199219 24.546875 35.382812 24.375 Z M 35.382812 24.375 "/>
<path style=" stroke:none;fill-rule:nonzero;fill:rgb(100%,43.137255%,23.529412%);fill-opacity:1;" d="M 33.097656 33.308594 C 33.496094 32.910156 33.339844 32.101562 32.742188 31.503906 C 32.144531 30.910156 31.335938 30.753906 30.9375 31.164062 C 30.539062 31.5625 30.695312 32.371094 31.292969 32.96875 C 31.890625 33.566406 32.699219 33.722656 33.097656 33.308594 Z M 33.097656 33.308594 "/>
<path style=" stroke:none;fill-rule:nonzero;fill:rgb(90.196079%,86.274511%,82.352942%);fill-opacity:1;" d="M 9.957031 19.816406 C 8.621094 20.3125 2.753906 22.246094 2.753906 27.769531 C 2.753906 33.28125 7.515625 35.140625 11.035156 33.964844 C 15.171875 32.585938 20 22.246094 20 22.246094 L 20 18.792969 Z M 9.957031 19.816406 "/>
<path style=" stroke:none;fill-rule:nonzero;fill:rgb(100%,78.431374%,39.215687%);fill-opacity:1;" d="M 12.203125 33.367188 C 16.035156 30.753906 20 22.246094 20 22.246094 L 20 20.070312 L 19.132812 20.183594 C 19.132812 20.183594 9.886719 20.226562 8.734375 29.035156 C 8.324219 32.144531 9.941406 33.238281 12.203125 33.367188 Z M 12.203125 33.367188 "/>
<path style=" stroke:none;fill-rule:nonzero;fill:rgb(56.078434%,40.000001%,30.19608%);fill-opacity:1;" d="M 6.007812 29.445312 C 7.203125 28.890625 8.140625 28.210938 8.90625 27.457031 C 8.90625 27.457031 8.90625 27.457031 8.921875 27.457031 C 9.203125 27.402344 16.023438 25.851562 19.886719 21.960938 L 19.132812 20.183594 C 13.367188 19.730469 11.492188 22.128906 9.6875 24.445312 C 8.609375 25.824219 7.5 27.230469 5.511719 28.167969 C 5.597656 28.636719 5.753906 29.078125 6.007812 29.445312 Z M 10.765625 25.296875 C 12.414062 23.195312 13.863281 21.363281 18.324219 21.519531 C 15.964844 23.59375 12.65625 24.886719 10.566406 25.554688 C 10.640625 25.46875 10.710938 25.382812 10.765625 25.296875 Z M 10.765625 25.296875 "/>
<path style=" stroke:none;fill-rule:nonzero;fill:rgb(41.176471%,31.37255%,27.450982%);fill-opacity:1;" d="M 8.28125 30.527344 C 5.171875 30.652344 5.027344 26.960938 5.839844 24.859375 C 6.421875 23.324219 6.234375 22.570312 5.667969 22.058594 C 4.105469 23.296875 2.753906 25.113281 2.753906 27.769531 C 2.753906 33.28125 7.515625 35.140625 11.035156 33.964844 C 11.71875 33.734375 12.429688 33.253906 13.140625 32.628906 C 13.195312 31.179688 11.761719 30.371094 8.28125 30.527344 Z M 8.28125 30.527344 "/>
<path style=" stroke:none;fill-rule:nonzero;fill:rgb(41.176471%,31.37255%,27.450982%);fill-opacity:1;" d="M 19.929688 19.871094 C 19.628906 19.289062 12.726562 5.695312 3.453125 5.695312 C 1.789062 5.695312 0 6.804688 0 8.453125 C 0 9.816406 1.136719 20.140625 5.398438 20.851562 C 5.839844 20.921875 6.277344 20.964844 6.746094 20.964844 C 8.222656 20.964844 9.886719 20.652344 11.492188 20.355469 C 14.402344 19.816406 17.429688 19.261719 18.820312 20.667969 C 19.0625 20.910156 19.445312 20.9375 19.714844 20.738281 C 19.984375 20.539062 20.085938 20.171875 19.929688 19.871094 Z M 19.929688 19.871094 "/>
<path style=" stroke:none;fill-rule:nonzero;fill:rgb(90.196079%,86.274511%,82.352942%);fill-opacity:1;" d="M 11.433594 19.785156 C 9.390625 20.183594 7.285156 20.597656 5.710938 20.3125 C 2.96875 19.84375 1.378906 11.191406 1.378906 8.535156 C 1.378906 7.785156 2.402344 7.074219 3.496094 7.074219 C 10.070312 7.074219 15.640625 15.355469 17.925781 19.316406 C 16.050781 18.90625 13.722656 19.347656 11.433594 19.785156 Z M 11.433594 19.785156 "/>
<path style=" stroke:none;fill-rule:nonzero;fill:rgb(90.196079%,86.274511%,82.352942%);fill-opacity:1;" d="M 19.304688 18.453125 C 19.148438 18.453125 18.992188 18.324219 18.964844 18.152344 C 18.964844 18.109375 18.253906 13.679688 15.582031 10.042969 C 15.46875 9.886719 15.511719 9.671875 15.652344 9.558594 C 15.808594 9.445312 16.023438 9.472656 16.136719 9.628906 C 18.921875 13.410156 19.617188 17.871094 19.644531 18.054688 C 19.671875 18.238281 19.546875 18.421875 19.359375 18.453125 C 19.347656 18.453125 19.332031 18.453125 19.304688 18.453125 Z M 19.304688 18.453125 "/>
<path style=" stroke:none;fill-rule:nonzero;fill:rgb(90.196079%,86.274511%,82.352942%);fill-opacity:1;" d="M 20.695312 18.453125 C 20.667969 18.453125 20.652344 18.453125 20.640625 18.453125 C 20.453125 18.421875 20.328125 18.238281 20.355469 18.054688 C 20.382812 17.871094 21.078125 13.410156 23.863281 9.628906 C 23.976562 9.472656 24.191406 9.445312 24.347656 9.558594 C 24.488281 9.671875 24.53125 9.886719 24.417969 10.042969 C 21.734375 13.691406 21.035156 18.109375 21.035156 18.152344 C 21.007812 18.324219 20.851562 18.453125 20.695312 18.453125 Z M 20.695312 18.453125 "/>
<path style=" stroke:none;fill-rule:nonzero;fill:rgb(90.196079%,86.274511%,82.352942%);fill-opacity:1;" d="M 20 30.527344 C 19.617188 30.527344 19.304688 30.214844 19.304688 29.828125 L 19.304688 22.246094 C 19.304688 21.859375 19.617188 21.5625 20 21.5625 C 20.382812 21.5625 20.695312 21.859375 20.695312 22.246094 L 20.695312 29.828125 C 20.695312 30.214844 20.382812 30.527344 20 30.527344 Z M 20 30.527344 "/>
<path style=" stroke:none;fill-rule:nonzero;fill:rgb(81.176472%,75.686276%,70.588237%);fill-opacity:1;" d="M 20 22.941406 C 19.234375 22.941406 18.621094 22.316406 18.621094 21.5625 L 18.621094 18.792969 C 18.621094 18.039062 19.234375 17.414062 20 17.414062 C 20.765625 17.414062 21.378906 18.039062 21.378906 18.792969 L 21.378906 21.5625 C 21.378906 22.316406 20.765625 22.941406 20 22.941406 Z M 20 22.941406 "/>
<path style=" stroke:none;fill-rule:nonzero;fill:rgb(56.078434%,40.000001%,30.19608%);fill-opacity:1;" d="M 11.222656 12.058594 C 11.847656 11.933594 12.570312 12.203125 13.378906 12.871094 C 12.714844 12.101562 12.003906 11.347656 11.234375 10.667969 C 11.136719 10.683594 11.050781 10.683594 10.953125 10.695312 C 10.722656 10.753906 10.511719 10.824219 10.3125 10.910156 C 6.648438 8.621094 3.265625 7.996094 1.691406 7.828125 C 1.503906 8.039062 1.378906 8.296875 1.378906 8.535156 C 1.378906 8.734375 1.390625 8.949219 1.40625 9.191406 C 2.683594 9.316406 5.753906 9.816406 9.121094 11.804688 C 8.609375 12.371094 8.351562 12.941406 8.339844 13.011719 C 5.296875 12.257812 2.941406 12.386719 1.859375 12.515625 C 1.945312 12.953125 2.046875 13.410156 2.160156 13.878906 C 3.566406 13.734375 7.230469 13.652344 11.605469 15.609375 C 7.671875 15.683594 4.121094 16.40625 2.96875 16.660156 C 3.140625 17.117188 3.324219 17.558594 3.507812 17.953125 C 5.140625 17.613281 9.886719 16.71875 14.332031 17.058594 C 15.296875 17.671875 16.277344 18.378906 17.257812 19.203125 C 17.484375 19.234375 17.714844 19.261719 17.925781 19.316406 C 17.5 18.578125 16.960938 17.699219 16.335938 16.746094 C 13.992188 15.070312 11.71875 14.019531 9.6875 13.378906 C 9.871094 13.027344 10.398438 12.214844 11.222656 12.058594 Z M 11.222656 12.058594 "/>
<path style=" stroke:none;fill-rule:nonzero;fill:rgb(100%,43.137255%,23.529412%);fill-opacity:1;" d="M 11.832031 31.503906 C 11.476562 31.164062 10.78125 31.308594 10.253906 31.816406 C 9.746094 32.328125 9.601562 33.027344 9.957031 33.378906 C 10.296875 33.722656 11.007812 33.59375 11.519531 33.082031 C 12.03125 32.558594 12.171875 31.859375 11.832031 31.503906 Z M 11.832031 31.503906 "/>
<path style=" stroke:none;fill-rule:nonzero;fill:rgb(100%,43.137255%,23.529412%);fill-opacity:1;" d="M 6.492188 30.554688 C 6.191406 30.253906 5.597656 30.371094 5.15625 30.808594 C 4.714844 31.25 4.601562 31.847656 4.902344 32.144531 C 5.199219 32.441406 5.796875 32.328125 6.234375 31.890625 C 6.675781 31.449219 6.789062 30.839844 6.492188 30.554688 Z M 6.492188 30.554688 "/>
<path style=" stroke:none;fill-rule:nonzero;fill:rgb(100%,43.137255%,23.529412%);fill-opacity:1;" d="M 5.214844 28.992188 C 4.941406 28.722656 4.417969 28.820312 4.035156 29.21875 C 3.636719 29.601562 3.535156 30.140625 3.792969 30.398438 C 4.0625 30.667969 4.589844 30.566406 4.984375 30.171875 C 5.371094 29.773438 5.484375 29.246094 5.214844 28.992188 Z M 5.214844 28.992188 "/>
<path style=" stroke:none;fill-rule:nonzero;fill:rgb(100%,43.137255%,23.529412%);fill-opacity:1;" d="M 4.757812 27.074219 C 4.53125 26.832031 4.046875 26.917969 3.691406 27.273438 C 3.351562 27.628906 3.253906 28.097656 3.496094 28.339844 C 3.722656 28.578125 4.203125 28.480469 4.558594 28.125 C 4.902344 27.785156 5 27.300781 4.757812 27.074219 Z M 4.757812 27.074219 "/>
<path style=" stroke:none;fill-rule:nonzero;fill:rgb(100%,43.137255%,23.529412%);fill-opacity:1;" d="M 4.914062 25.128906 C 4.703125 24.914062 4.261719 25 3.933594 25.328125 C 3.609375 25.652344 3.523438 26.09375 3.734375 26.308594 C 3.964844 26.519531 4.402344 26.433594 4.714844 26.121094 C 5.042969 25.796875 5.128906 25.355469 4.914062 25.128906 Z M 4.914062 25.128906 "/>
<path style=" stroke:none;fill-rule:nonzero;fill:rgb(100%,43.137255%,23.529412%);fill-opacity:1;" d="M 5.566406 23.421875 C 5.382812 23.253906 5.027344 23.324219 4.773438 23.578125 C 4.515625 23.835938 4.445312 24.191406 4.617188 24.375 C 4.800781 24.546875 5.15625 24.472656 5.410156 24.21875 C 5.667969 23.964844 5.738281 23.609375 5.566406 23.421875 Z M 5.566406 23.421875 "/>
<path style=" stroke:none;fill-rule:nonzero;fill:rgb(100%,43.137255%,23.529412%);fill-opacity:1;" d="M 9.0625 31.152344 C 8.664062 30.753906 7.855469 30.910156 7.257812 31.503906 C 6.660156 32.101562 6.503906 32.910156 6.902344 33.308594 C 7.300781 33.722656 8.109375 33.566406 8.707031 32.96875 C 9.304688 32.371094 9.460938 31.5625 9.0625 31.152344 Z M 9.0625 31.152344 "/>
</g>
</svg>
