<?xml version="1.0" encoding="UTF-8"?>
<svg xmlns="http://www.w3.org/2000/svg" width="40px" height="40px" viewBox="0 0 40 40" version="1.1">
<g id="surface1">
<path style=" stroke:none;fill-rule:nonzero;fill:rgb(66.666667%,83.137255%,100%);fill-opacity:1;" d="M 39.800781 0.296875 L 9.96875 0.296875 L 9.96875 15.273438 L 39.800781 22.757812 Z M 9.824219 15.421875 L 9.824219 0.171875 L 40.089844 0.667969 L 39.757812 14.4375 L 40.226562 22.695312 Z M 29.859375 25.257812 L 0.0351562 17.773438 L 0.0351562 40.234375 L 29.859375 40.234375 Z M 5.007812 35.238281 L 5.007812 23.757812 L 9.96875 25.257812 L 9.96875 35.238281 Z M 5.007812 35.238281 L 39.800781 0.296875 Z M 5.007812 35.238281 "/>
<path style=" stroke:none;fill-rule:nonzero;fill:rgb(30.196078%,50.196078%,30.196078%);fill-opacity:1;" d="M 40.101562 0.265625 L 9.484375 0.265625 L 9.484375 15.242188 L 40.269531 23.222656 Z M 14.566406 12.746094 L 14.566406 5.265625 L 19.648438 5.265625 L 19.648438 13.742188 L 19.648438 12.746094 Z M 29.792969 25.226562 L 29.792969 17.742188 "/>
</g>
</svg>
